<?xml version="1.0" standalone="no"?>
<!DOCTYPE svg PUBLIC "-//W3C//DTD SVG 20010904//EN"
 "http://www.w3.org/TR/2001/REC-SVG-20010904/DTD/svg10.dtd">
<svg version="1.0" xmlns="http://www.w3.org/2000/svg"
 width="119.000000pt" height="119.000000pt" viewBox="0 0 119.000000 119.000000"
 preserveAspectRatio="xMidYMid meet">
<metadata>
Created by potrace 1.14, written by Peter Selinger 2001-2017
</metadata>
<g transform="translate(0.000000,119.000000) scale(0.100000,-0.100000)"
fill="#000000" stroke="none">
<path d="M235 816 l-100 -11 -3 -48 c-3 -53 4 -59 91 -72 43 -7 47 -9 47 -36
0 -20 5 -29 16 -29 12 0 15 7 12 30 -4 28 -1 31 56 54 61 24 61 25 59 63 -5
71 2 69 -178 49z m155 -18 c0 -7 3 -22 6 -34 5 -18 -3 -24 -56 -44 -53 -20
-69 -22 -123 -14 l-62 9 -3 37 -3 36 78 7 c43 3 83 8 88 10 26 9 75 4 75 -7z"/>
<path d="M757 823 c-3 -4 -8 -29 -12 -54 l-7 -46 66 -31 c66 -31 66 -31 66
-73 0 -35 2 -40 14 -29 8 6 16 23 18 38 3 25 8 28 72 37 76 11 90 26 84 90 -3
30 -4 30 -98 47 -141 24 -197 30 -203 21z m128 -28 c50 -8 105 -18 123 -21 29
-4 32 -8 32 -40 0 -39 -2 -41 -87 -52 -56 -8 -67 -6 -124 20 -35 16 -65 30
-67 33 -9 9 9 75 21 75 7 0 53 -7 102 -15z"/>
<path d="M446 730 c-4 -24 -3 -46 1 -50 4 -4 32 -15 61 -26 36 -12 52 -23 52
-35 0 -27 18 -32 22 -7 2 18 13 25 54 34 28 6 57 14 63 18 12 8 15 82 3 90 -4
2 -62 8 -128 12 l-121 7 -7 -43z m222 11 c20 -1 23 -5 20 -33 -3 -31 -6 -33
-60 -45 -52 -12 -63 -11 -113 8 -48 18 -55 24 -55 48 0 15 2 30 4 32 3 2 44 1
93 -3 48 -3 98 -7 111 -7z"/>
<path d="M125 577 c-3 -7 -4 -58 -3 -113 3 -94 4 -99 26 -102 21 -3 22 0 22
65 1 76 1 76 61 -20 25 -41 33 -48 57 -45 l27 3 0 110 0 110 -25 0 c-24 0 -25
-2 -25 -63 0 -34 -2 -62 -5 -62 -3 0 -21 29 -40 63 -28 50 -41 63 -63 65 -16
2 -29 -2 -32 -11z"/>
<path d="M422 577 c-72 -40 -75 -141 -7 -195 53 -42 139 -21 169 42 20 42 20
57 2 101 -24 56 -107 83 -164 52z m100 -54 c26 -23 24 -78 -4 -97 -30 -21 -54
-20 -78 4 -27 27 -26 75 2 94 29 21 57 20 80 -1z"/>
<path d="M705 578 c-2 -7 -18 -51 -35 -97 -36 -101 -37 -121 -9 -121 14 0 24
10 32 30 9 24 17 30 42 30 25 0 33 -6 42 -30 11 -28 45 -42 56 -22 3 4 -12 54
-32 112 -34 95 -40 105 -64 108 -16 2 -29 -2 -32 -10z m45 -100 c0 -10 -7 -18
-15 -18 -16 0 -19 17 -9 45 5 13 8 14 15 3 5 -7 9 -21 9 -30z"/>
<path d="M919 575 c-15 -8 -34 -31 -44 -51 -22 -48 -8 -101 37 -139 28 -23 39
-27 81 -22 27 2 56 12 65 21 15 15 15 17 0 33 -14 14 -22 15 -43 5 -36 -17
-52 -15 -75 8 -29 29 -26 76 5 96 22 15 40 15 83 3 8 -2 19 4 25 14 10 15 8
21 -7 33 -25 18 -93 18 -127 -1z"/>
</g>
</svg>
